<?xml version="1.0" standalone="no"?>
<!DOCTYPE svg PUBLIC "-//W3C//DTD SVG 20010904//EN"
 "http://www.w3.org/TR/2001/REC-SVG-20010904/DTD/svg10.dtd">
<svg version="1.0" xmlns="http://www.w3.org/2000/svg"
 width="2481.000000pt" height="2481.000000pt" viewBox="0 0 2481.000000 2481.000000"
 preserveAspectRatio="xMidYMid meet">
<metadata>
Created by potrace 1.11, written by Peter Selinger 2001-2013
</metadata>
<g transform="translate(0.000000,2481.000000) scale(0.100000,-0.100000)"
fill="#000000" stroke="none">
<path d="M12197 23364 c-1 -1 -87 -4 -192 -8 -207 -6 -332 -13 -440 -21 -38
-3 -97 -8 -130 -10 -33 -3 -80 -7 -105 -10 -25 -2 -70 -7 -100 -10 -111 -12
-158 -18 -415 -54 -1028 -147 -2091 -465 -3030 -906 -316 -148 -780 -393 -965
-510 -19 -12 -89 -55 -155 -95 -66 -40 -214 -136 -330 -213 -929 -618 -1776
-1395 -2469 -2262 -642 -803 -1162 -1673 -1543 -2585 -56 -133 -99 -242 -193
-485 -115 -301 -329 -1011 -376 -1253 -2 -12 -13 -59 -24 -105 -10 -45 -22
-98 -25 -117 -3 -19 -8 -43 -11 -52 -3 -9 -7 -27 -9 -40 -3 -13 -11 -57 -20
-98 -8 -41 -16 -86 -19 -100 -2 -14 -7 -36 -10 -50 -3 -14 -8 -41 -10 -60 -3
-19 -11 -73 -20 -120 -8 -47 -20 -121 -26 -165 -6 -44 -13 -91 -16 -105 -2
-14 -6 -45 -9 -70 -3 -25 -8 -56 -10 -70 -3 -14 -7 -52 -10 -85 -4 -33 -8 -71
-10 -85 -2 -14 -7 -61 -11 -105 -4 -44 -8 -93 -10 -110 -2 -16 -6 -70 -9 -120
-3 -49 -8 -103 -10 -120 -20 -136 -27 -995 -12 -1320 5 -93 10 -172 11 -175 2
-3 7 -58 10 -122 4 -65 9 -128 11 -140 2 -13 6 -54 10 -93 10 -110 15 -154 26
-240 17 -139 28 -221 34 -255 2 -14 7 -45 10 -70 18 -131 89 -511 135 -720 99
-450 241 -931 420 -1425 138 -382 390 -943 585 -1305 117 -217 137 -252 223
-400 249 -426 474 -759 840 -1240 19 -24 38 -53 43 -65 5 -11 15 -29 21 -40 7
-11 28 -44 47 -75 41 -67 109 -152 265 -330 910 -1039 2008 -1885 3249 -2502
76 -38 166 -81 200 -97 34 -16 96 -44 137 -64 41 -19 136 -61 210 -92 74 -31
149 -62 165 -70 267 -116 1069 -394 1275 -440 8 -2 62 -17 120 -34 58 -16 182
-48 275 -70 94 -23 179 -44 190 -46 29 -8 246 -53 275 -59 14 -2 36 -7 50 -10
14 -3 36 -8 50 -10 82 -13 110 -18 150 -26 25 -5 63 -12 84 -15 21 -3 48 -7
60 -10 12 -2 37 -7 56 -10 19 -2 46 -7 60 -9 34 -7 311 -43 385 -51 33 -3 71
-8 85 -10 21 -3 274 -25 460 -40 267 -20 1338 -28 1620 -11 238 14 388 25 440
31 19 2 64 6 100 10 103 9 152 14 190 19 19 3 56 8 83 11 26 3 68 7 95 10 26
3 58 8 72 10 28 5 22 4 245 39 88 14 169 27 180 30 11 2 70 13 130 25 61 11
121 23 135 26 14 4 36 8 50 11 67 12 342 78 461 109 74 20 145 38 158 41 14 3
28 7 33 10 4 3 17 7 28 9 37 7 193 55 399 123 l203 66 -6 61 -6 61 183 73
c156 63 304 127 497 213 82 37 484 237 570 284 706 384 1278 769 1855 1249 66
54 134 111 150 126 17 14 57 50 90 79 186 163 606 573 755 736 120 130 170
185 230 254 36 41 72 81 80 90 20 20 191 226 266 320 800 999 1476 2258 1849
3445 26 83 54 170 62 195 9 25 19 59 23 75 4 17 33 120 63 230 46 167 119 472
142 590 3 17 7 39 9 50 2 11 12 56 21 100 9 44 18 92 20 107 2 15 6 35 9 45 3
10 7 36 11 58 3 22 10 65 15 95 20 118 43 268 55 365 4 28 8 61 10 75 2 14 7
52 10 85 3 33 8 67 10 75 2 8 6 42 9 75 3 33 10 107 16 165 5 58 12 146 15
195 4 50 8 108 10 130 5 55 18 525 19 665 0 130 -13 587 -19 640 -2 19 -6 89
-10 154 -4 66 -8 127 -10 136 -2 10 -6 55 -9 101 -4 46 -8 95 -11 109 -2 14
-7 52 -10 85 -6 62 -22 193 -31 255 -2 19 -9 67 -15 105 -156 1107 -517 2260
-1025 3277 -138 276 -298 572 -384 708 -5 8 -55 89 -111 180 -91 147 -353 540
-430 645 -16 22 -37 51 -46 65 -66 97 -316 416 -472 600 -306 362 -753 821
-1081 1110 -47 41 -92 81 -100 89 -28 27 -355 298 -410 340 -192 147 -300 229
-415 311 -309 223 -754 504 -1070 676 -34 18 -94 51 -135 74 -132 72 -549 276
-725 353 -736 325 -1480 561 -2255 717 -135 27 -258 51 -275 53 -16 3 -73 12
-125 21 -52 8 -115 18 -140 21 -25 3 -52 7 -60 10 -8 2 -37 6 -65 10 -27 3
-66 8 -85 10 -19 3 -57 7 -85 10 -27 3 -61 8 -75 10 -49 7 -294 29 -450 40
-47 4 -105 8 -130 10 -150 12 -892 28 -903 19z"/>
</g>
</svg>
